<svg width="72" height="72" viewBox="0 0 72 72" fill="none" xmlns="http://www.w3.org/2000/svg">
<g clip-path="url(#clip0_16_14)">
<path d="M56.3562 27.8957C56.3562 30.7555 53.812 33.0732 50.6749 33.0732C47.5378 33.0732 44.9936 30.7555 44.9936 27.8957C44.9936 25.0358 47.5378 22.7182 50.6749 22.7182C53.812 22.7182 56.3562 25.0358 56.3562 27.8957Z" fill="#EEFF00"/>
<path d="M70.8661 24.7089C70.7248 24.3638 70.4272 24.0829 70.0456 23.9357C69.6638 23.7913 69.2309 23.794 68.8494 23.9436L67.7402 24.3851C65.8075 25.1638 64.1419 25.8327 63.1021 25.8327C62.7024 25.8327 62.4018 25.7498 62.0439 25.3323C61.9356 25.2119 61.8785 25.0888 61.9206 24.8641C62.0558 24.1228 63.1711 22.3355 69.1139 18.7019C69.7062 18.3407 69.9286 17.6584 69.6489 17.0725C66.8113 11.1592 62.7321 8.81793 58.6049 10.5652C54.4265 12.3311 50.9907 15.7159 47.6841 19.0471C45.694 18.1909 43.2232 17.9982 39.9046 17.9982C39.5168 18.0705 39.1141 18.1426 38.8344 18.3968C38.5457 18.651 38.3924 18.9934 38.3985 19.3494C38.4166 20.8986 38.4436 22.611 39.3635 25.2734C35.9186 24.3047 31.8335 23.4512 27.5078 23.4512C12.5981 23.4512 0 31.2188 0 40.4125V45.7104C0 50.2992 3.94398 53.0177 8.46488 53.7829C8.47098 53.9489 8.50997 54.1174 8.59123 54.278C8.93386 54.9523 9.27371 55.5328 9.58627 56.0707C10.5301 57.6949 11.1555 58.7731 11.1555 61.16C11.1555 61.5078 11.3119 61.8155 11.5552 62.0509H13.7616C15.3096 62.1311 20.1463 62.0509 21.6944 62.0509H23.9007C24.1442 61.8155 24.3004 61.5051 24.3004 61.16C24.3004 58.6956 24.9077 57.6682 25.8304 56.119C26.155 55.5677 26.5098 54.9764 26.8675 54.2728C26.9095 54.1952 26.9095 54.1068 26.9306 54.0265H30.7934C30.8145 54.1068 30.8145 54.195 30.8565 54.2728C31.2292 54.9979 31.5899 55.6 31.9267 56.1537C32.8255 57.6441 33.4208 58.6208 33.4208 61.16C33.4208 61.5051 33.5772 61.8128 33.8205 62.0484H36.0238H40.7794H42.9827C43.2293 61.813 43.3824 61.5053 43.3824 61.16C43.3824 58.6609 43.9866 57.6548 44.8915 56.1376C45.2222 55.5784 45.5798 54.9843 45.9467 54.2725C46.0098 54.1494 46.0249 54.0156 46.0458 53.8952C50.6538 52.8222 58.211 44.8914 59.5156 38.6731C65.3442 38.0604 68.9334 36.5672 70.752 34.0119C72.4323 31.6707 72.4654 28.6257 70.8662 24.7085L70.8661 24.7089ZM50.6839 32.1179C48.1049 32.1179 45.9946 30.2288 45.9946 27.9092C45.9946 25.5892 48.0957 23.7004 50.6839 23.7004C53.2721 23.7004 55.3733 25.5895 55.3733 27.9092C55.3733 30.2264 53.2691 32.1179 50.6839 32.1179Z" fill="#EEFF00"/>
</g>
<defs>
<clipPath id="clip0_16_14">
<rect width="72" height="72" fill="white"/>
</clipPath>
</defs>
</svg>
